<?xml version="1.0" encoding="utf-8"?>
<svg viewBox="0 0 600 181" version="1.1" xmlns:xlink="http://www.w3.org/1999/xlink" xmlns="http://www.w3.org/2000/svg">
  <g id="contiki-logo">
    <path d="M596.8 67.6L514.8 67.6L476.6 106.8L476.6 0L440 0L440 176.4L476.6 176.4L476.6 132L516.8 176.4L596.8 176.4L596.8 67.6ZM411.1 47C399.2 47 389.4 37.2 389.4 25.3C389.4 13.4 399.2 3.60001 411.1 3.60001C423 3.60001 432.8 13.4 432.8 25.3C432.8 37.2 423 47 411.1 47ZM600 25.3C600 37.2 590.2 47 578.3 47C565.9 47 556.6 37.2 556.6 25.3C556.6 13.4 566.4 3.60001 578.3 3.60001C590.2 3.60001 600 13.4 600 25.3ZM362.6 67.6L362.6 34.6L326 34.6L326 67.1L309 67.1L309 93.4C308 86.7 305.4 81.5 300.2 76.4C293 68.7 282.7 64.5 270.3 64.5C258.4 64.5 248.6 68.1 241.9 75.3C240.4 76.8 238.8 78.9 237.3 81L237.3 67.1L200.7 67.1L200.7 104.2C193.5 79.4 170.8 62.9 140.9 62.9C113 62.9 91.4 77.3 82.6 99L82.6 69.6C74.3 65.5 67.6 63.4 57.8 63.4C24.8 63.9 0 89.2 0 122.7C0 155.2 24.8 180 56.7 180C66 180 73.2 178.5 82 173.8L82 144.4C90.8 166.6 112.4 181 140.3 181C170.2 181 192.9 164.5 200.1 139.7L200.1 176.8L237.2 176.8L237.2 118C237.2 103.6 244.4 95.8 256.3 95.8C262.5 95.8 268.7 99.4 270.7 104.1C272.7 108.8 273.3 109.3 273.3 121.6L273.3 176.8L309.9 176.8L309.9 107.2C309.9 104.1 309.9 102 309.4 99.5L325.4 99.5L325.4 176.4L362.1 176.4L362.1 99.5L387.9 99.5L387.9 67.5L362.6 67.6ZM429.7 67.6L393.1 67.6L393.1 177L429.7 177L429.7 67.6ZM560.2 72.2L513.3 117.6C513.3 117.6 560.15 167.147 560.2 167.1L560.2 72.2ZM38.1 122.3C38.1 137.8 49 148.6 63.4 148.6C70.1 148.6 75.8 146.5 81.5 141.9C79.4 135.7 78.4 129 78.4 121.8C78.4 115.1 79.4 108.4 81.5 102.2C74.7 97.5 69.6 96 63.4 96C48.4 96 38.1 106.8 38.1 122.3ZM140.8 146.5C127.9 146.5 117.1 135.7 117.1 121.7C117.1 107.7 127.9 96.9 140.8 96.9C153.7 96.9 164.5 107.7 164.5 121.7C164 135.7 153.7 146.5 140.8 146.5Z" id="Shape" fill="#302A3D" fill-rule="evenodd" stroke="none" />
  </g>
</svg>